# xmcd
#
# Track frame offsets:
#	150
#	25319
#	31010
#	56312
#	74401
#	93297
#	111665
#	127789
#	151789
#	167621
#
# Disc length: 2511 seconds
#
# Revision: 97062664
# Processed by: cddbd v1.5.2PL0 Copyright (c) Steve Scherf et al.
# Submitted via: EZCDAudioConverter 8.0.2.1
#
DISCID=7309cd0a
DTITLE=Mai Quốc Huy - Sến 2. Bolero
DYEAR=2011
DGENRE=Miscellaneous
TTITLE0=Mưa đêm tỉnh nhỏ
TTITLE1=Lời giới thiệu
TTITLE2=Dấu chân kỷ niệm
TTITLE3=Chiều hạ vàng
TTITLE4=Đừng nói xa nhau
TTITLE5=Giã từ
TTITLE6=Hoa sư nhà nàng
TTITLE7=Tạ ơn con gái
TTITLE8=Thân phận nghèo
TTITLE9=Thành phố buồn
EXTD=
EXTT0=
EXTT1=
EXTT2=
EXTT3=
EXTT4=
EXTT5=
EXTT6=
EXTT7=
EXTT8=
EXTT9=
PLAYORDER=
